# xmcd CD Database Entry
#
# Track frame offsets:
# 150
# 18644
# 35064
# 50257
# 68030
# 91933
# 109786
# 129533
# 152681
# 168745
# 196672
# 219583
# 235029
# 257480
# 278123
# 295941
# 315175
# 332028
#
# Disc length: 4797 seconds
#
# Revision: 1
# Processed by: cddbd v1.4PL0 Copyright (c) Steve Scherf et al.
# Submitted via: tcd 2.0b
#
DISCID=f912bb12
DTITLE=Sade - Collection 2000
DYEAR=1900
DGENRE=
TTITLE0=Smooth Operator
TTITLE1=Your Love Is King
TTITLE2=Paradise
TTITLE3=Fear
TTITLE4=Jezebel
TTITLE5=Clean Heart
TTITLE6=Pearls
TTITLE7=Cherish The Day
TTITLE8=Please Send Me
TTITLE9=Is It A Crime
TTITLE10=Feel No Pain
TTITLE11=Like A Tattoo
TTITLE12=Haunt Me
TTITLE13=I Will Be Your Friend
TTITLE14=Kiss Of Life
TTITLE15=The Sweetest Taboo
TTITLE16=I Never Thought I'd See The Day
TTITLE17=No Ordinary Love
EXTD=
EXTT0=
EXTT1=
EXTT2=
EXTT3=
EXTT4=
EXTT5=
EXTT6=
EXTT7=
EXTT8=
EXTT9=
EXTT10=
EXTT11=
EXTT12=
EXTT13=
EXTT14=
EXTT15=
EXTT16=
EXTT17=
PLAYORDER=
